<svg id="dribbble-icon" xmlns="http://www.w3.org/2000/svg" viewBox="0 0 18 18"><defs><style>.cls-1{fill:#383838;fill-rule:evenodd;}</style></defs><title>dribbble-icon</title><path id="basketball" class="cls-1" d="M14.03,16.465a38.9,38.9,0,0,0-1.752-6.428,13.049,13.049,0,0,1,5.609.393A9.006,9.006,0,0,1,14.03,16.465ZM9,18a8.968,8.968,0,0,1-5.522-1.892L3.468,16.1s1.725-3.762,7.063-5.622l0.061-.02a37.476,37.476,0,0,1,1.922,6.834A8.971,8.971,0,0,1,9,18ZM0,9c0-.1,0-0.19.007-0.284A33,33,0,0,0,9.247,7.433c0.258,0.5.5,1.017,0.73,1.529C9.859,9,9.741,9.032,9.623,9.07A14.242,14.242,0,0,0,2.3,15.01l0,0A8.966,8.966,0,0,1,0,9ZM5.16,0.86A54.209,54.209,0,0,1,8.5,6.046a33.3,33.3,0,0,1-8.311,1.1A9.013,9.013,0,0,1,5.16.86Zm9.785,1.385a9.8,9.8,0,0,1-4.7,3.259A45.732,45.732,0,0,0,6.879.254,8.99,8.99,0,0,1,14.945,2.246ZM18,8.91a20.818,20.818,0,0,0-6.269-.295c-0.064-.154-0.129-0.309-0.195-0.463-0.188-.441-0.389-0.877-0.6-1.306a11.574,11.574,0,0,0,5.015-3.563A8.971,8.971,0,0,1,18,8.91Z" transform="translate(0.001 0)"/></svg>