<svg id="instagram-icon" xmlns="http://www.w3.org/2000/svg" viewBox="0 0 18 18"><defs><style>.cls-1{fill:#383838;}</style></defs><title>facebook-icon</title><path class="cls-1" d="M17.936,4.564a6.077,6.077,0,0,0-.378-2.038,3.4,3.4,0,0,0-.821-1.262A3.4,3.4,0,0,0,15.475.442,6.075,6.075,0,0,0,13.436.064C12.279,0.011,11.931,0,9,0S5.722,0.011,4.564.064A6.074,6.074,0,0,0,2.526.442a3.4,3.4,0,0,0-1.262.821A3.4,3.4,0,0,0,.442,2.526,6.074,6.074,0,0,0,.064,4.564C0.011,5.722,0,6.069,0,9s0.011,3.278.064,4.436a6.074,6.074,0,0,0,.378,2.038,3.4,3.4,0,0,0,.821,1.262,3.4,3.4,0,0,0,1.262.821,6.075,6.075,0,0,0,2.038.378C5.721,17.989,6.069,18,9,18H9.614v-6.97H7.269V8.313H9.614v-2a3.273,3.273,0,0,1,3.494-3.591,19.242,19.242,0,0,1,2.1.107v2.43H13.766A1.127,1.127,0,0,0,12.42,6.578V8.313h2.69l-0.35,2.717H12.42v6.947c0.332-.009.63-0.022,1.016-0.04a6.075,6.075,0,0,0,2.039-.378,3.636,3.636,0,0,0,2.083-2.083,6.077,6.077,0,0,0,.378-2.038C17.989,12.278,18,11.931,18,9S17.989,5.722,17.936,4.564Z" transform="translate(0)"/></svg>