<svg id="path-co" xmlns="http://www.w3.org/2000/svg" viewBox="0 0 108.217 14.278" style="max-width:111px">
  <defs>
    <style>
      .cls-1, .dark {fill:#48484c;}
      .cls-2, .light {fill:#ccc;}
    </style>
  </defs>
  <title>ganticdotco-logo</title>
  <path class="cls-1" d="M95.726,13.642a3.065,3.065,0,0,0,2.467-1.3L98.8,12.759A4.1,4.1,0,0,1,94.52,16.18,4.4,4.4,0,0,1,90,11.427c0-3.169,2.035-5.51,5.149-5.51,1.854,0,3.529.882,3.529,2.629a1.4,1.4,0,0,1-.774,1.4H96.158V9.014c0-1.062-.252-1.818-1.224-1.818s-1.854.973-1.854,2.827C93.079,12.165,93.961,13.642,95.726,13.642ZM99.4,11.211a5.037,5.037,0,0,1,5.293-5.294,4.794,4.794,0,0,1,5.023,4.951,5.056,5.056,0,0,1-5.312,5.312A4.793,4.793,0,0,1,99.4,11.211Zm7.224,0.378c0-2.521-.667-4.411-1.837-4.411-0.99,0-1.512,1.4-1.512,3.331,0,2.521.666,4.393,1.854,4.393C106.1,14.9,106.624,13.516,106.624,11.589Z" transform="translate(-1.5 -1.901)"/>
  <path class="cls-1" d="M95.726,13.642a3.065,3.065,0,0,0,2.467-1.3L98.8,12.759A4.1,4.1,0,0,1,94.52,16.18,4.4,4.4,0,0,1,90,11.427c0-3.169,2.035-5.51,5.149-5.51,1.854,0,3.529.882,3.529,2.629a1.4,1.4,0,0,1-.774,1.4H96.158V9.014c0-1.062-.252-1.818-1.224-1.818s-1.854.973-1.854,2.827C93.079,12.165,93.961,13.642,95.726,13.642ZM99.4,11.211a5.037,5.037,0,0,1,5.293-5.294,4.794,4.794,0,0,1,5.023,4.951,5.056,5.056,0,0,1-5.312,5.312A4.793,4.793,0,0,1,99.4,11.211Zm7.224,0.378c0-2.521-.667-4.411-1.837-4.411-0.99,0-1.512,1.4-1.512,3.331,0,2.521.666,4.393,1.854,4.393C106.1,14.9,106.624,13.516,106.624,11.589Z" transform="translate(-1.5 -1.901)"/>
  <path class="cls-2" d="M66.5,14.416A3.133,3.133,0,0,1,63.51,16.18c-2.161,0-3.691-1.656-3.691-4.609,0-3.547,2.179-5.527,5.078-5.527a2.616,2.616,0,0,1,1.6.433V4.729L65.508,3.666V3l3.8-.7h0.576V13.39c0,0.611.144,0.954,0.684,0.972H71V15.6l-3.817.576H66.5V14.416ZM63.276,10.6c0,2.2.828,3.511,2.214,3.511a2.661,2.661,0,0,0,1.009-.216V9.014c0-1.188-.306-1.782-1.261-1.782C63.96,7.231,63.276,8.618,63.276,10.6Zm8.074,0.612a5.037,5.037,0,0,1,5.293-5.294,4.794,4.794,0,0,1,5.023,4.951,5.056,5.056,0,0,1-5.312,5.312A4.793,4.793,0,0,1,71.35,11.211Zm6.824,0.378c0-2.521-.667-4.411-1.837-4.411-0.99,0-1.512,1.4-1.512,3.331,0,2.521.666,4.393,1.854,4.393C77.652,14.9,78.174,13.516,78.174,11.589ZM86.609,6.1H89V7.447H86.609v5.546a1.027,1.027,0,0,0,1.116,1.242,3.054,3.054,0,0,0,1.333-.342l0.36,0.918a4.494,4.494,0,0,1-3.331,1.368c-1.927,0-2.9-.9-2.9-2.862V7.447H82V6.457a8.686,8.686,0,0,0,3.547-2.646h1.063V6.1Z" transform="translate(-1.5 -1.901)"/>
  <path class="cls-2" d="M66.5,14.416A3.133,3.133,0,0,1,63.51,16.18c-2.161,0-3.691-1.656-3.691-4.609,0-3.547,2.179-5.527,5.078-5.527a2.616,2.616,0,0,1,1.6.433V4.729L65.508,3.666V3l3.8-.7h0.576V13.39c0,0.611.144,0.954,0.684,0.972H71V15.6l-3.817.576H66.5V14.416ZM63.276,10.6c0,2.2.828,3.511,2.214,3.511a2.661,2.661,0,0,0,1.009-.216V9.014c0-1.188-.306-1.782-1.261-1.782C63.96,7.231,63.276,8.618,63.276,10.6Zm8.074,0.612a5.037,5.037,0,0,1,5.293-5.294,4.794,4.794,0,0,1,5.023,4.951,5.056,5.056,0,0,1-5.312,5.312A4.793,4.793,0,0,1,71.35,11.211Zm6.824,0.378c0-2.521-.667-4.411-1.837-4.411-0.99,0-1.512,1.4-1.512,3.331,0,2.521.666,4.393,1.854,4.393C77.652,14.9,78.174,13.516,78.174,11.589ZM86.609,6.1H89V7.447H86.609v5.546a1.027,1.027,0,0,0,1.116,1.242,3.054,3.054,0,0,0,1.333-.342l0.36,0.918a4.494,4.494,0,0,1-3.331,1.368c-1.927,0-2.9-.9-2.9-2.862V7.447H82V6.457a8.686,8.686,0,0,0,3.547-2.646h1.063V6.1Z" transform="translate(-1.5 -1.901)"/>
  <path class="cls-1" d="M8.216,3.18a6.834,6.834,0,0,1,4.321,1.333V7.447H10.809C10.323,5.665,9.656,4.494,8.18,4.494,6.091,4.494,5.3,6.926,5.3,9.41c0,3.115.811,5.348,3.169,5.348a2.741,2.741,0,0,0,1.117-.181v-2.3c0-.936-0.234-1.152-1.387-1.187V9.807h6.032v1.278c-1.206.035-1.386,0.252-1.386,1.188v2.593a8.528,8.528,0,0,1-4.861,1.3c-4.268,0-6.482-2.629-6.482-6.229A6.526,6.526,0,0,1,8.216,3.18ZM23.209,13.354c0,0.54.072,0.936,0.541,0.936a3.412,3.412,0,0,0,.756-0.107L24.668,15.1a4.061,4.061,0,0,1-2.629,1.08,2.19,2.19,0,0,1-2.106-1.638,3.37,3.37,0,0,1-2.845,1.566,2.373,2.373,0,0,1-2.539-2.539c0-1.585,1.152-2.179,2.431-2.61l2.9-1.009V8.834c0-1.387-.288-1.818-1.009-1.818a0.942,0.942,0,0,0-.918,1.116,4.291,4.291,0,0,0,.162,1.242L15.954,9.7a1.225,1.225,0,0,1-.774-1.261c0-1.746,1.674-2.521,4-2.521,2.575,0,4.051.811,4.051,3.925C23.228,9.914,23.209,13.264,23.209,13.354Zm-3.331.576V10.959l-1.062.432a1.253,1.253,0,0,0-.882,1.351,1.2,1.2,0,0,0,1.134,1.422A1.309,1.309,0,0,0,19.879,13.93ZM32.31,9.194a0.951,0.951,0,0,0-1.1-1.135,5.328,5.328,0,0,0-1.729.306v5.4c0,0.828.2,0.918,1.008,1.026V16H25V14.794c0.81-.108,1.1-0.2,1.1-1.026V8.527L25.09,7.466V6.817l3.8-.99h0.594v1.98a4.776,4.776,0,0,1,3.475-1.891c1.764,0,2.737.954,2.737,2.953v4.9c0,0.828.27,0.918,1.08,1.026V16H31.32V14.794c0.81-.108.99-0.2,0.99-1.026V9.194Zm8.9-3.1H43.6V7.447H41.208v5.546a1.027,1.027,0,0,0,1.116,1.242,3.054,3.054,0,0,0,1.333-.342l0.36,0.918a4.492,4.492,0,0,1-3.331,1.368c-1.927,0-2.9-.9-2.9-2.862V7.447H36.6V6.457a8.683,8.683,0,0,0,3.547-2.646h1.063V6.1ZM48.9,13.768c0,0.828.288,0.918,1.1,1.026V16H44.418V14.794c0.81-.108,1.1-0.2,1.1-1.026V8.456L44.508,7.375V6.817l3.8-.918H48.9v7.868ZM45.319,3.612a1.851,1.851,0,1,1,1.854,1.711A1.726,1.726,0,0,1,45.319,3.612ZM56,13.642a3.065,3.065,0,0,0,2.467-1.3l0.612,0.414A4.1,4.1,0,0,1,54.8,16.18a4.4,4.4,0,0,1-4.52-4.753c0-3.169,2.035-5.51,5.149-5.51,1.854,0,3.529.882,3.529,2.629a1.4,1.4,0,0,1-.774,1.4H56.437V9.014c0-1.062-.252-1.818-1.224-1.818s-1.854.973-1.854,2.827C53.358,12.165,54.24,13.642,56,13.642Z" transform="translate(-1.5 -1.901)"/>
</svg>
