<svg id="social-icon" xmlns="http://www.w3.org/2000/svg" viewBox="0 0 18 18"><defs><style>.cls-1{fill:#383838;fill-rule:evenodd;}</style></defs><title>github-icon</title><path class="cls-1" d="M0,9.228a9.212,9.212,0,0,0,6.155,8.756,0.455,0.455,0,0,0,.614-0.445c0-.219-0.008-0.8-0.012-1.569-2.5.557-3.032-1.237-3.032-1.237a2.429,2.429,0,0,0-1-1.35c-0.817-.573.062-0.561,0.062-0.561a1.9,1.9,0,0,1,1.378.951,1.89,1.89,0,0,0,2.619.766,1.993,1.993,0,0,1,.571-1.234c-2-.233-4.1-1.024-4.1-4.56a3.619,3.619,0,0,1,.927-2.477,3.4,3.4,0,0,1,.088-2.442s0.756-.249,2.475.945a8.333,8.333,0,0,1,4.507,0c1.718-1.194,2.472-.945,2.472-0.945a3.4,3.4,0,0,1,.09,2.442,3.612,3.612,0,0,1,.925,2.477c0,3.545-2.1,4.325-4.109,4.554a2.232,2.232,0,0,1,.611,1.709c0,1.234-.01,2.229-0.01,2.532a0.453,0.453,0,0,0,.619.444A9.213,9.213,0,0,0,18,9.228,9.117,9.117,0,0,0,9,0,9.116,9.116,0,0,0,0,9.228Z"/></svg>