<svg id="instagram-icon" xmlns="http://www.w3.org/2000/svg" viewBox="0 0 18 18"><defs><style>.cls-1{fill:#383838;}</style></defs><title>instagram-icon-b</title><path id="camera-filled" class="cls-1" d="M12.659,9A3.659,3.659,0,1,1,9,5.341,3.659,3.659,0,0,1,12.659,9ZM18,9c0,2.931-.011,3.278-0.064,4.436a6.075,6.075,0,0,1-.378,2.038,3.636,3.636,0,0,1-2.083,2.083,6.074,6.074,0,0,1-2.038.378C12.279,17.989,11.931,18,9,18s-3.279-.011-4.436-0.064a6.074,6.074,0,0,1-2.038-.378,3.4,3.4,0,0,1-1.262-.821,3.4,3.4,0,0,1-.821-1.262,6.074,6.074,0,0,1-.378-2.038C0.011,12.278,0,11.931,0,9S0.011,5.722.064,4.564A6.074,6.074,0,0,1,.442,2.525a3.4,3.4,0,0,1,.821-1.262A3.4,3.4,0,0,1,2.526.442,6.074,6.074,0,0,1,4.564.064C5.722,0.011,6.069,0,9,0s3.278,0.011,4.436.064a6.074,6.074,0,0,1,2.038.378,3.4,3.4,0,0,1,1.262.821,3.4,3.4,0,0,1,.821,1.262,6.075,6.075,0,0,1,.378,2.038C17.989,5.722,18,6.069,18,9ZM14.637,9A5.637,5.637,0,1,0,9,14.637,5.637,5.637,0,0,0,14.637,9Zm1.54-5.86A1.317,1.317,0,1,0,14.86,4.457,1.317,1.317,0,0,0,16.177,3.14Z" transform="translate(0 0)"/></svg>