<svg id="Linkedin-icon" xmlns="http://www.w3.org/2000/svg" viewBox="0 0 15.5 16.5"><defs><style>.cls-1,.cls-2{fill:#383838;}.cls-1{fill-rule:evenodd;}</style></defs><title>linkedin-icon</title><path id="n" class="cls-1" d="M13,17V11.572C13,10.008,12.292,9,11,9a2.037,2.037,0,0,0-1.919,1.356A2.876,2.876,0,0,0,9,11.3V17H6S6.048,6.962,6,6H9V7.812C9.22,7.02,10.1,6,12,6c2.355,0,4,1.551,4,5.127V17H13Z" transform="translate(-0.5 -0.5)"/><path id="i-dot" class="cls-1" d="M2.49,4.5H2.466A1.909,1.909,0,0,1,.5,2.5,1.926,1.926,0,0,1,2.513.5,1.917,1.917,0,0,1,4.5,2.5,1.922,1.922,0,0,1,2.49,4.5Z" transform="translate(-0.5 -0.5)"/><rect id="i-stem" class="cls-2" x="0.5" y="5.5" width="3" height="11"/></svg>