<svg id="Linkedin-icon" xmlns="http://www.w3.org/2000/svg" viewBox="0 0 16.6 17.6"><defs><style>.cls-1,.cls-2{fill:#383838;}.cls-1{fill-rule:evenodd;}</style></defs><title>linkedin-icon-b</title><path id="n" class="cls-1" d="M14,18V12.21a2.539,2.539,0,0,0-2.5-2.743,2.7,2.7,0,0,0-2.4,1.447A3.04,3.04,0,0,0,9,11.92V18H6S6.051,7.026,6,6H9V8.2c0.235-.845,1.645-1.933,3.67-1.933,2.512,0,4.33,1.655,4.33,5.469V18H14Z" transform="translate(-0.4 -0.4)"/><path id="i-dot" class="cls-1" d="M2.49,4.6H2.465A2,2,0,0,1,.4,2.5,2.022,2.022,0,0,1,2.514.4,2.013,2.013,0,0,1,4.6,2.5,2.018,2.018,0,0,1,2.49,4.6Z" transform="translate(-0.4 -0.4)"/><rect id="i-stem" class="cls-2" x="0.6" y="5.6" width="3" height="12"/></svg>