<svg id="medium-icon" xmlns="http://www.w3.org/2000/svg" viewBox="0 0 17 12.989"><defs><style>.cls-1{fill:#383838;fill-rule:evenodd;}</style></defs><title>medium-icon-b</title><path id="medi-em" class="cls-1" d="M4.973,4.838L0.554,2.566a0.5,0.5,0,0,0-.225-0.06A0.353,0.353,0,0,0,0,2.918v9.809a0.851,0.851,0,0,0,.415.691l3.892,2a0.619,0.619,0,0,0,.281.076A0.441,0.441,0,0,0,5,14.979V4.882A0.05,0.05,0,0,0,4.973,4.838Zm7.734,8.845,3.474,1.71C16.634,15.615,17,15.46,17,15.045V6.815ZM6,5.437V10.4L10.479,12.6ZM16.5,5.2l-0.009-.007-0.005,0L11.837,2.805a0.5,0.5,0,0,0-.1-0.034,0.52,0.52,0,0,0-.127-0.017,0.532,0.532,0,0,0-.449.24L8.5,7.256,11.843,12.6,16.51,5.271A0.055,0.055,0,0,0,16.5,5.2Z" transform="translate(0 -2.506)"/></svg>