<svg id="pocket-icon" xmlns="http://www.w3.org/2000/svg" viewBox="0 0 18 16"><defs><style>.cls-1{fill:#383838;fill-rule:evenodd;}</style></defs><title>pocket-icon</title><path id="pocket" class="cls-1" d="M16.723,0H1.277A1.274,1.274,0,0,0,0,1.271V7.422A8.6,8.6,0,0,0,8.621,16H9.379A8.6,8.6,0,0,0,18,7.422V1.271A1.274,1.274,0,0,0,16.723,0m-2.55,6.535L9.745,10.81a1.072,1.072,0,0,1-1.49,0L3.828,6.535A1.072,1.072,0,0,1,3.8,5.018l0,0A1.072,1.072,0,0,1,5.319,4.99L9,8.544,12.681,4.99a1.072,1.072,0,0,1,1.516.026l0,0a1.072,1.072,0,0,1-.027,1.516"/></svg>