<?xml version="1.0" encoding="utf-8"?>
<!-- Generator: Adobe Illustrator 19.2.1, SVG Export Plug-In . SVG Version: 6.00 Build 0)  -->
<svg version="1.1" id="social-icon" xmlns="http://www.w3.org/2000/svg" xmlns:xlink="http://www.w3.org/1999/xlink" x="0px"
	 y="0px" viewBox="0 0 18 18" style="enable-background:new 0 0 18 18;" xml:space="preserve">
<style type="text/css">
	.st0{fill:#383838;}
	.st1{fill-rule:evenodd;clip-rule:evenodd;fill:#383838;}
	.st2{enable-background:new    ;}
	.st3{clip-path:url(#SVGID_2_);}
	.st4{clip-path:url(#SVGID_4_);}
	.st5{clip-path:url(#SVGID_6_);fill:#383838;}
	.st6{clip-path:url(#SVGID_8_);}
	.st7{clip-path:url(#SVGID_10_);}
	.st8{clip-path:url(#SVGID_12_);fill:#383838;}
</style>
<title>social-icon</title>
<g>
	<path class="st0" d="M-162.1-56.1c0-1.1-0.2-1.7-0.4-2c-0.2-0.5-0.4-0.9-0.8-1.3c-0.4-0.4-0.7-0.6-1.3-0.8c-0.4-0.2-1-0.3-2-0.4
		c-1.2-0.1-1.5-0.1-4.4-0.1c-2.9,0-3.3,0-4.4,0.1c-1.1,0-1.7,0.2-2,0.4c-0.5,0.2-0.9,0.4-1.3,0.8c-0.4,0.4-0.6,0.7-0.8,1.3
		c-0.2,0.4-0.3,1-0.4,2c-0.1,1.2-0.1,1.5-0.1,4.4s0,3.3,0.1,4.4c0,1.1,0.2,1.7,0.4,2c0.2,0.5,0.4,0.9,0.8,1.3
		c0.2,0.2,0.5,0.4,0.7,0.5v-10.3h3v11c0.6,0,1,0,1.9,0c0-0.1,0.1-11,0.1-11h3v1.8c0.2-0.8,1.1-1.8,3-1.8c2.4,0,4,1.6,4,5.1v4.4
		c0.3-0.3,0.4-0.6,0.6-1c0.2-0.4,0.3-1,0.4-2c0.1-1.2,0.1-1.5,0.1-4.4S-162-54.9-162.1-56.1z M-176.6-55.2L-176.6-55.2
		c-1.2,0-2-0.9-2-2c0-1.1,0.8-2,2-2c1.2,0,2,0.9,2,2C-174.6-56-175.4-55.2-176.6-55.2z"/>
	<path class="st0" d="M-166-48.1c0-1.6-0.7-2.6-2-2.6c-1,0-1.7,0.7-1.9,1.4c-0.1,0.2-0.1,0.6-0.1,0.9v5.7c2.1,0,2.5,0,3.5-0.1
		c0.2,0,0.3,0,0.5,0V-48.1z"/>
</g>
<g>
	<path id="n_1_" class="st1" d="M-166.1,54.1v-5.4c0-1.6-0.7-2.6-2-2.6c-1,0-1.7,0.7-1.9,1.4c-0.1,0.2-0.1,0.6-0.1,0.9v5.7h-3
		c0,0,0-10,0-11h3v1.8c0.2-0.8,1.1-1.8,3-1.8c2.4,0,4,1.6,4,5.1v5.9H-166.1z"/>
	<path id="i-dot_1_" class="st1" d="M-176.6,41.6L-176.6,41.6c-1.2,0-2-0.9-2-2c0-1.1,0.8-2,2-2c1.2,0,2,0.9,2,2
		C-174.6,40.7-175.4,41.6-176.6,41.6z"/>
	<rect id="i-stem_1_" x="-178.1" y="43.1" class="st1" width="3" height="11"/>
</g>
<path class="st0" d="M-162.1,4.6c0-1.1-0.2-1.7-0.4-2c-0.2-0.5-0.4-0.9-0.8-1.3c-0.4-0.4-0.7-0.6-1.3-0.8c-0.4-0.2-1-0.3-2-0.4
	C-167.7,0-168.1,0-171,0c-2.9,0-3.3,0-4.4,0.1c-1.1,0-1.7,0.2-2,0.4c-0.5,0.2-0.9,0.4-1.3,0.8c-0.4,0.4-0.6,0.7-0.8,1.3
	c-0.2,0.4-0.3,1-0.4,2C-180,5.7-180,6.1-180,9s0,3.3,0.1,4.4c0,1.1,0.2,1.7,0.4,2c0.2,0.5,0.4,0.9,0.8,1.3c0.4,0.4,0.7,0.6,1.3,0.8
	c0.4,0.2,1,0.3,2,0.4c1.2,0.1,1.5,0.1,4.4,0.1s3.3,0,4.4-0.1c1.1,0,1.7-0.2,2-0.4c0.5-0.2,0.9-0.4,1.3-0.8c0.4-0.4,0.6-0.7,0.8-1.3
	c0.2-0.4,0.3-1,0.4-2c0.1-1.2,0.1-1.5,0.1-4.4S-162,5.7-162.1,4.6z M-174,15h-2V8h2V15z M-175,6.4L-175,6.4c-0.8,0-1.4-0.6-1.4-1.4
	c0-0.8,0.5-1.4,1.4-1.4c0.8,0,1.3,0.6,1.4,1.4C-173.6,5.8-174.2,6.4-175,6.4z M-166,15h-2v-3.2c0-1.1-0.6-1.8-1.5-1.8
	c-0.7,0-1.3,0.5-1.5,1c-0.1,0.2,0,0.4,0,0.6V15h-2c0,0,0-6.3,0-7h2v1.2c0.1-0.5,1-1.2,2.2-1.2c1.6,0,2.8,1.1,2.8,3.5V15z"/>
<path id="basketball" class="st1" d="M-93.9,16.5c-0.1-0.5-0.6-3.2-1.8-6.4c2.9-0.5,5.4,0.3,5.6,0.4C-90.4,12.9-91.8,15.1-93.9,16.5
	z M-98.9,18c-2.1,0-4-0.7-5.5-1.9c0,0,0,0,0,0s1.7-3.8,7.1-5.6c0,0,0,0,0.1,0c1.3,3.3,1.8,6,1.9,6.8C-96.5,17.7-97.6,18-98.9,18z
	 M-107.9,9c0-0.1,0-0.2,0-0.3c0.2,0,4.6,0.1,9.2-1.3c0.3,0.5,0.5,1,0.7,1.5C-98,9-98.1,9-98.3,9.1c-4.9,1.6-7.3,5.9-7.3,5.9s0,0,0,0
	C-107,13.4-107.9,11.3-107.9,9z M-102.7,0.9c0.1,0.2,1.8,2.4,3.3,5.2c-4.3,1.1-8.1,1.1-8.3,1.1C-107.1,4.4-105.2,2-102.7,0.9z
	 M-92.9,2.2c0,0-1.3,2-4.7,3.3c-1.5-2.8-3.2-5.1-3.4-5.3c0.7-0.2,1.4-0.3,2.1-0.3C-96.6,0-94.5,0.9-92.9,2.2z M-89.9,8.9
	c-0.1,0-3.2-0.7-6.3-0.3c-0.1-0.2-0.1-0.3-0.2-0.5c-0.2-0.4-0.4-0.9-0.6-1.3c3.6-1.5,5-3.5,5-3.6C-90.7,4.8-89.9,6.8-89.9,8.9z"/>
<path id="camera-filled" class="st0" d="M-131.3,9c0,2-1.6,3.7-3.7,3.7s-3.7-1.6-3.7-3.7s1.6-3.7,3.7-3.7S-131.3,7-131.3,9z M-126,9
	c0,2.9,0,3.3-0.1,4.4c0,1.1-0.2,1.7-0.4,2c-0.2,0.5-0.4,0.9-0.8,1.3c-0.4,0.4-0.7,0.6-1.3,0.8c-0.4,0.2-1,0.3-2,0.4
	c-1.2,0.1-1.5,0.1-4.4,0.1s-3.3,0-4.4-0.1c-1.1,0-1.7-0.2-2-0.4c-0.5-0.2-0.9-0.4-1.3-0.8c-0.4-0.4-0.6-0.7-0.8-1.3
	c-0.2-0.4-0.3-1-0.4-2c-0.1-1.2-0.1-1.5-0.1-4.4s0-3.3,0.1-4.4c0-1.1,0.2-1.7,0.4-2c0.2-0.5,0.4-0.9,0.8-1.3
	c0.4-0.4,0.7-0.6,1.3-0.8c0.4-0.2,1-0.3,2-0.4C-138.3,0-137.9,0-135,0c2.9,0,3.3,0,4.4,0.1c1.1,0,1.7,0.2,2,0.4
	c0.5,0.2,0.9,0.4,1.3,0.8c0.4,0.4,0.6,0.7,0.8,1.3c0.2,0.4,0.3,1,0.4,2C-126,5.7-126,6.1-126,9z M-129.4,9c0-3.1-2.5-5.6-5.6-5.6
	c-3.1,0-5.6,2.5-5.6,5.6s2.5,5.6,5.6,5.6C-131.9,14.6-129.4,12.1-129.4,9z M-127.8,3.1c0-0.7-0.6-1.3-1.3-1.3
	c-0.7,0-1.3,0.6-1.3,1.3s0.6,1.3,1.3,1.3C-128.4,4.5-127.8,3.9-127.8,3.1z"/>
<path class="st1" d="M-72,9.1c0,4.1,2.6,7.5,6.2,8.8c0.5,0.1,0.6-0.2,0.6-0.4c0-0.2,0-0.8,0-1.6c-2.5,0.6-3-1.2-3-1.2
	c-0.4-1.1-1-1.3-1-1.3c-0.8-0.6,0.1-0.6,0.1-0.6c0.9,0.1,1.4,1,1.4,1c0.8,1.4,2.1,1,2.6,0.8c0.1-0.6,0.3-1,0.6-1.2
	c-2-0.2-4.1-1-4.1-4.6c0-1,0.4-1.8,0.9-2.5c-0.1-0.2-0.4-1.2,0.1-2.4c0,0,0.8-0.2,2.5,0.9c0.7-0.2,1.5-0.3,2.3-0.3
	c0.8,0,1.5,0.1,2.3,0.3c1.7-1.2,2.5-0.9,2.5-0.9c0.5,1.3,0.2,2.2,0.1,2.4c0.6,0.6,0.9,1.5,0.9,2.5c0,3.5-2.1,4.3-4.1,4.6
	c0.3,0.3,0.6,0.8,0.6,1.7c0,1.2,0,2.2,0,2.5c0,0.2,0.2,0.5,0.6,0.4c3.6-1.2,6.1-4.7,6.1-8.8c0-5.1-4-9.2-9-9.2C-68-0.1-72,4-72,9.1z
	"/>
<path id="medi-em" class="st1" d="M-30.4,4.6l-5-2.5C-35.5,2-35.5,2-35.6,2C-35.8,2-36,2.2-36,2.5v10.6c0,0.3,0.2,0.6,0.5,0.7
	l4.4,2.2c0.1,0.1,0.2,0.1,0.3,0.1c0.3,0,0.5-0.2,0.5-0.6L-30.4,4.6C-30.3,4.6-30.3,4.6-30.4,4.6z M-23.9,14l4,2
	c0.5,0.3,0.9,0.1,0.9-0.4V6.1L-23.9,14z M-29.5,5.9v5.4l4.9,2.4L-29.5,5.9z M-19.1,4.5C-19.1,4.5-19.1,4.5-19.1,4.5L-19.1,4.5
	L-24.2,2c0,0-0.1,0-0.1,0c0,0-0.1,0-0.1,0c-0.2,0-0.4,0.1-0.5,0.3l-3,4.7l3.7,5.9L-19.1,4.5C-19,4.6-19,4.6-19.1,4.5z"/>
<g class="st2">
	<g>
		<defs>
			<rect id="SVGID_1_" x="0.5" y="1.4" width="17" height="15"/>
		</defs>
		<clipPath id="SVGID_2_">
			<use xlink:href="#SVGID_1_"  style="overflow:visible;"/>
		</clipPath>
		<g class="st3">
			<defs>
				<path id="SVGID_3_" d="M16.1,1.4H1.7C1,1.4,0.5,1.9,0.5,2.6v5.8c0,4.4,3.6,8,8,8h0.7c4.4,0,8-3.6,8-8V2.6
					C17.3,1.9,16.8,1.4,16.1,1.4 M13.5,7.7l-4,3.8c-0.4,0.4-1,0.4-1.3,0l-4-3.8c-0.4-0.4-0.4-1,0-1.4l0,0c0.4-0.4,1-0.4,1.4,0
					l3.3,3.2l3.3-3.2c0.4-0.4,1-0.4,1.4,0l0,0C13.9,6.7,13.9,7.3,13.5,7.7"/>
			</defs>
			<clipPath id="SVGID_4_">
				<use xlink:href="#SVGID_3_"  style="overflow:visible;"/>
			</clipPath>
			<g class="st4">
				<defs>
					<rect id="SVGID_5_" x="0.5" y="1.4" width="17" height="15"/>
				</defs>
				<clipPath id="SVGID_6_">
					<use xlink:href="#SVGID_5_"  style="overflow:visible;"/>
				</clipPath>
				<rect x="-4.5" y="-3.6" class="st5" width="26.8" height="25"/>
			</g>
		</g>
	</g>
</g>
<path id="camera-glyph" class="st0" d="M-135,37.7c2.4,0,2.7,0,3.6,0.1c0.9,0,1.4,0.2,1.7,0.3c0.4,0.2,0.7,0.4,1,0.7
	c0.3,0.3,0.5,0.6,0.7,1c0.1,0.3,0.3,0.8,0.3,1.7c0,0.9,0.1,1.2,0.1,3.6s0,2.7-0.1,3.6c0,0.9-0.2,1.4-0.3,1.7c-0.2,0.4-0.4,0.7-0.7,1
	c-0.3,0.3-0.6,0.5-1,0.7c-0.3,0.1-0.8,0.3-1.7,0.3c-0.9,0-1.2,0.1-3.6,0.1s-2.7,0-3.6-0.1c-0.9,0-1.4-0.2-1.7-0.3
	c-0.4-0.2-0.7-0.4-1-0.7c-0.3-0.3-0.5-0.6-0.7-1c-0.1-0.3-0.3-0.8-0.3-1.7c0-0.9-0.1-1.2-0.1-3.6s0-2.7,0.1-3.6
	c0-0.9,0.2-1.4,0.3-1.7c0.2-0.4,0.4-0.7,0.7-1c0.3-0.3,0.6-0.5,1-0.7c0.3-0.1,0.8-0.3,1.7-0.3C-137.7,37.7-137.4,37.7-135,37.7
	 M-135,36.1c-2.4,0-2.8,0-3.7,0.1c-1,0-1.6,0.2-2.2,0.4c-0.6,0.2-1.1,0.5-1.6,1c-0.5,0.5-0.8,1-1,1.6c-0.2,0.6-0.4,1.2-0.4,2.2
	c0,1-0.1,1.3-0.1,3.7c0,2.4,0,2.8,0.1,3.7c0,1,0.2,1.6,0.4,2.2c0.2,0.6,0.5,1.1,1,1.6c0.5,0.5,1,0.8,1.6,1c0.6,0.2,1.2,0.4,2.2,0.4
	c1,0,1.3,0.1,3.7,0.1s2.8,0,3.7-0.1c1,0,1.6-0.2,2.2-0.4c0.6-0.2,1.1-0.5,1.6-1c0.5-0.5,0.8-1,1-1.6c0.2-0.6,0.4-1.2,0.4-2.2
	c0-1,0.1-1.3,0.1-3.7c0-2.4,0-2.8-0.1-3.7c0-1-0.2-1.6-0.4-2.2c-0.2-0.6-0.5-1.1-1-1.6c-0.5-0.5-1-0.8-1.6-1
	c-0.6-0.2-1.2-0.4-2.2-0.4C-132.2,36.1-132.6,36.1-135,36.1L-135,36.1z M-135,40.5c-2.6,0-4.6,2.1-4.6,4.6c0,2.6,2.1,4.6,4.6,4.6
	s4.6-2.1,4.6-4.6C-130.4,42.6-132.4,40.5-135,40.5z M-135,48.1c-1.7,0-3-1.3-3-3c0-1.7,1.3-3,3-3s3,1.3,3,3
	C-132,46.8-133.3,48.1-135,48.1z M-130.2,39.2c-0.6,0-1.1,0.5-1.1,1.1c0,0.6,0.5,1.1,1.1,1.1c0.6,0,1.1-0.5,1.1-1.1
	C-129.1,39.7-129.6,39.2-130.2,39.2z"/>
<path id="basketball_1_" class="st1" d="M-94.7,51.5c-0.1-0.5-0.5-2.7-1.5-5.5c2.5-0.4,4.6,0.3,4.8,0.3
	C-91.7,48.5-93,50.3-94.7,51.5z M-99,52.8c-1.8,0-3.4-0.6-4.7-1.6c0,0,0,0,0,0s1.5-3.2,6-4.8c0,0,0,0,0.1,0c1.1,2.8,1.5,5.2,1.6,5.8
	C-96.9,52.6-97.9,52.8-99,52.8z M-106.7,45.1c0-0.1,0-0.2,0-0.2c0.1,0,3.9,0.1,7.9-1.1c0.2,0.4,0.4,0.9,0.6,1.3
	c-0.1,0-0.2,0.1-0.3,0.1c-4.1,1.3-6.2,5.1-6.2,5.1s0,0,0,0C-105.9,48.9-106.7,47.1-106.7,45.1z M-102.3,38.2
	c0.1,0.1,1.5,2.1,2.8,4.4c-3.7,1-6.9,0.9-7.1,0.9C-106,41.2-104.4,39.2-102.3,38.2z M-93.9,39.4c0,0-1.1,1.7-4,2.8
	c-1.3-2.4-2.8-4.3-2.9-4.5c0.6-0.1,1.2-0.2,1.8-0.2C-97,37.4-95.3,38.2-93.9,39.4z M-91.3,45c-0.1,0-2.7-0.6-5.3-0.3
	c-0.1-0.1-0.1-0.3-0.2-0.4c-0.2-0.4-0.3-0.7-0.5-1.1c3-1.2,4.3-3,4.3-3C-92,41.6-91.3,43.2-91.3,45z M-99,36.1c-5,0-9,4-9,9s4,9,9,9
	s9-4,9-9S-94,36.1-99,36.1z"/>
<path class="st0" d="M-198.1,4.6c0-1.1-0.2-1.7-0.4-2c-0.2-0.5-0.4-0.9-0.8-1.3c-0.4-0.4-0.7-0.6-1.3-0.8c-0.4-0.2-1-0.3-2-0.4
	C-203.7,0-204.1,0-207,0c-2.9,0-3.3,0-4.4,0.1c-1.1,0-1.7,0.2-2,0.4c-0.5,0.2-0.9,0.4-1.3,0.8c-0.4,0.4-0.6,0.7-0.8,1.3
	c-0.2,0.4-0.3,1-0.4,2C-216,5.7-216,6.1-216,9s0,3.3,0.1,4.4c0,1.1,0.2,1.7,0.4,2c0.2,0.5,0.4,0.9,0.8,1.3c0.4,0.4,0.7,0.6,1.3,0.8
	c0.4,0.2,1,0.3,2,0.4c1.2,0.1,1.5,0.1,4.4,0.1c0.2,0,0.4,0,0.6,0v-7h-2.3V8.3h2.3v-2c0-2.3,1.4-3.6,3.5-3.6c1,0,1.8,0.1,2.1,0.1v2.4
	l-1.4,0c-1.1,0-1.3,0.5-1.3,1.3v1.7h2.7l-0.4,2.7h-2.3V18c0.3,0,0.6,0,1,0c1.1,0,1.7-0.2,2-0.4c0.5-0.2,0.9-0.4,1.3-0.8
	c0.4-0.4,0.6-0.7,0.8-1.3c0.2-0.4,0.3-1,0.4-2c0.1-1.2,0.1-1.5,0.1-4.4S-198,5.7-198.1,4.6z"/>
<g>
	<path class="st0" d="M-162.1-164.8c0-1.1-0.2-1.7-0.4-2c-0.2-0.5-0.4-0.9-0.8-1.3c-0.4-0.4-0.7-0.6-1.3-0.8c-0.4-0.2-1-0.3-2-0.4
		c-1.2-0.1-1.5-0.1-4.4-0.1c-2.9,0-3.3,0-4.4,0.1c-1.1,0-1.7,0.2-2,0.4c-0.5,0.2-0.9,0.4-1.3,0.8c-0.4,0.4-0.6,0.7-0.8,1.3
		c-0.2,0.4-0.3,1-0.4,2c-0.1,1.2-0.1,1.5-0.1,4.4s0,3.3,0.1,4.4c0,1.1,0.2,1.7,0.4,2c0.2,0.5,0.4,0.9,0.8,1.3
		c0.2,0.2,0.5,0.4,0.7,0.5v-10.3h3v11c0.6,0,1,0,1.9,0c0-0.1,0.1-11,0.1-11h3v1.8c0.2-0.8,1.1-1.8,3-1.8c2.4,0,4,1.6,4,5.1v4.4
		c0.3-0.3,0.4-0.6,0.6-1c0.2-0.4,0.3-1,0.4-2c0.1-1.2,0.1-1.5,0.1-4.4S-162-163.7-162.1-164.8z M-176.6-163.9L-176.6-163.9
		c-1.2,0-2-0.9-2-2c0-1.1,0.8-2,2-2c1.2,0,2,0.9,2,2C-174.6-164.8-175.4-163.9-176.6-163.9z"/>
	<path class="st0" d="M-166-156.8c0-1.6-0.7-2.6-2-2.6c-1,0-1.7,0.7-1.9,1.4c-0.1,0.2-0.1,0.6-0.1,0.9v5.7c2.1,0,2.5,0,3.5-0.1
		c0.2,0,0.3,0,0.5,0V-156.8z"/>
</g>
<g>
	<path id="n_2_" class="st1" d="M-166.1-115.3v-5.4c0-1.6-0.7-2.6-2-2.6c-1,0-1.7,0.7-1.9,1.4c-0.1,0.2-0.1,0.6-0.1,0.9v5.7h-3
		c0,0,0-10,0-11h3v1.8c0.2-0.8,1.1-1.8,3-1.8c2.4,0,4,1.6,4,5.1v5.9H-166.1z"/>
	<path id="i-dot_2_" class="st1" d="M-176.6-127.8L-176.6-127.8c-1.2,0-2-0.9-2-2c0-1.1,0.8-2,2-2c1.2,0,2,0.9,2,2
		C-174.6-128.7-175.4-127.8-176.6-127.8z"/>
	<rect id="i-stem_2_" x="-178.1" y="-126.3" class="st1" width="3" height="11"/>
</g>
<path id="basketball_3_" class="st1" d="M-93.9-152.9c-0.1-0.5-0.6-3.2-1.8-6.4c2.9-0.5,5.4,0.3,5.6,0.4
	C-90.4-156.5-91.8-154.3-93.9-152.9z M-98.9-151.4c-2.1,0-4-0.7-5.5-1.9c0,0,0,0,0,0s1.7-3.8,7.1-5.6c0,0,0,0,0.1,0
	c1.3,3.3,1.8,6,1.9,6.8C-96.5-151.7-97.6-151.4-98.9-151.4z M-107.9-160.4c0-0.1,0-0.2,0-0.3c0.2,0,4.6,0.1,9.2-1.3
	c0.3,0.5,0.5,1,0.7,1.5c-0.1,0-0.2,0.1-0.4,0.1c-4.9,1.6-7.3,5.9-7.3,5.9s0,0,0,0C-107-156-107.9-158.1-107.9-160.4z M-102.7-168.6
	c0.1,0.2,1.8,2.4,3.3,5.2c-4.3,1.1-8.1,1.1-8.3,1.1C-107.1-165.1-105.2-167.4-102.7-168.6z M-92.9-167.2c0,0-1.3,2-4.7,3.3
	c-1.5-2.8-3.2-5.1-3.4-5.3c0.7-0.2,1.4-0.3,2.1-0.3C-96.6-169.4-94.5-168.6-92.9-167.2z M-89.9-160.5c-0.1,0-3.2-0.7-6.3-0.3
	c-0.1-0.2-0.1-0.3-0.2-0.5c-0.2-0.4-0.4-0.9-0.6-1.3c3.6-1.5,5-3.5,5-3.6C-90.7-164.6-89.9-162.6-89.9-160.5z"/>
<path id="camera-filled_1_" class="st0" d="M-131.3-160.4c0,2-1.6,3.7-3.7,3.7s-3.7-1.6-3.7-3.7s1.6-3.7,3.7-3.7
	S-131.3-162.4-131.3-160.4z M-126-160.4c0,2.9,0,3.3-0.1,4.4c0,1.1-0.2,1.7-0.4,2c-0.2,0.5-0.4,0.9-0.8,1.3
	c-0.4,0.4-0.7,0.6-1.3,0.8c-0.4,0.2-1,0.3-2,0.4c-1.2,0.1-1.5,0.1-4.4,0.1s-3.3,0-4.4-0.1c-1.1,0-1.7-0.2-2-0.4
	c-0.5-0.2-0.9-0.4-1.3-0.8c-0.4-0.4-0.6-0.7-0.8-1.3c-0.2-0.4-0.3-1-0.4-2c-0.1-1.2-0.1-1.5-0.1-4.4s0-3.3,0.1-4.4
	c0-1.1,0.2-1.7,0.4-2c0.2-0.5,0.4-0.9,0.8-1.3c0.4-0.4,0.7-0.6,1.3-0.8c0.4-0.2,1-0.3,2-0.4c1.2-0.1,1.5-0.1,4.4-0.1
	c2.9,0,3.3,0,4.4,0.1c1.1,0,1.7,0.2,2,0.4c0.5,0.2,0.9,0.4,1.3,0.8c0.4,0.4,0.6,0.7,0.8,1.3c0.2,0.4,0.3,1,0.4,2
	C-126-163.7-126-163.3-126-160.4z M-129.4-160.4c0-3.1-2.5-5.6-5.6-5.6c-3.1,0-5.6,2.5-5.6,5.6s2.5,5.6,5.6,5.6
	C-131.9-154.8-129.4-157.3-129.4-160.4z M-127.8-166.3c0-0.7-0.6-1.3-1.3-1.3c-0.7,0-1.3,0.6-1.3,1.3s0.6,1.3,1.3,1.3
	C-128.4-165-127.8-165.5-127.8-166.3z"/>
<path class="st1" d="M-72-160.3c0,4.1,2.6,7.5,6.2,8.8c0.5,0.1,0.6-0.2,0.6-0.4c0-0.2,0-0.8,0-1.6c-2.5,0.6-3-1.2-3-1.2
	c-0.4-1.1-1-1.3-1-1.3c-0.8-0.6,0.1-0.6,0.1-0.6c0.9,0.1,1.4,1,1.4,1c0.8,1.4,2.1,1,2.6,0.8c0.1-0.6,0.3-1,0.6-1.2
	c-2-0.2-4.1-1-4.1-4.6c0-1,0.4-1.8,0.9-2.5c-0.1-0.2-0.4-1.2,0.1-2.4c0,0,0.8-0.2,2.5,0.9c0.7-0.2,1.5-0.3,2.3-0.3
	c0.8,0,1.5,0.1,2.3,0.3c1.7-1.2,2.5-0.9,2.5-0.9c0.5,1.3,0.2,2.2,0.1,2.4c0.6,0.6,0.9,1.5,0.9,2.5c0,3.5-2.1,4.3-4.1,4.6
	c0.3,0.3,0.6,0.8,0.6,1.7c0,1.2,0,2.2,0,2.5c0,0.2,0.2,0.5,0.6,0.4c3.6-1.2,6.1-4.7,6.1-8.8c0-5.1-4-9.2-9-9.2
	C-68-169.5-72-165.4-72-160.3z"/>
<path id="medi-em_1_" class="st1" d="M-30.4-164.9l-5-2.5c-0.1,0-0.2-0.1-0.3-0.1c-0.2,0-0.4,0.2-0.4,0.4v10.6
	c0,0.3,0.2,0.6,0.5,0.7l4.4,2.2c0.1,0.1,0.2,0.1,0.3,0.1c0.3,0,0.5-0.2,0.5-0.6L-30.4-164.9C-30.3-164.8-30.3-164.9-30.4-164.9z
	 M-23.9-155.4l4,2c0.5,0.3,0.9,0.1,0.9-0.4v-9.5L-23.9-155.4z M-29.5-163.5v5.4l4.9,2.4L-29.5-163.5z M-19.1-164.9
	C-19.1-164.9-19.1-164.9-19.1-164.9L-19.1-164.9l-5.1-2.5c0,0-0.1,0-0.1,0c0,0-0.1,0-0.1,0c-0.2,0-0.4,0.1-0.5,0.3l-3,4.7l3.7,5.9
	L-19.1-164.9C-19-164.8-19-164.8-19.1-164.9z"/>
<g class="st2">
	<g>
		<defs>
			<rect id="SVGID_7_" x="0.5" y="-168" width="17" height="15"/>
		</defs>
		<clipPath id="SVGID_8_">
			<use xlink:href="#SVGID_7_"  style="overflow:visible;"/>
		</clipPath>
		<g class="st6">
			<defs>
				<path id="SVGID_9_" d="M16.1-168H1.7c-0.7,0-1.2,0.5-1.2,1.2v5.8c0,4.4,3.6,8,8,8h0.7c4.4,0,8-3.6,8-8v-5.8
					C17.3-167.5,16.8-168,16.1-168 M13.5-161.7l-4,3.8c-0.4,0.4-1,0.4-1.3,0l-4-3.8c-0.4-0.4-0.4-1,0-1.4l0,0c0.4-0.4,1-0.4,1.4,0
					l3.3,3.2l3.3-3.2c0.4-0.4,1-0.4,1.4,0l0,0C13.9-162.7,13.9-162.1,13.5-161.7"/>
			</defs>
			<clipPath id="SVGID_10_">
				<use xlink:href="#SVGID_9_"  style="overflow:visible;"/>
			</clipPath>
			<g class="st7">
				<defs>
					<rect id="SVGID_11_" x="0.5" y="-168" width="17" height="15"/>
				</defs>
				<clipPath id="SVGID_12_">
					<use xlink:href="#SVGID_11_"  style="overflow:visible;"/>
				</clipPath>
				<rect x="-4.5" y="-173" class="st8" width="26.8" height="25"/>
			</g>
		</g>
	</g>
</g>
<path id="camera-glyph_1_" class="st0" d="M-135-131.7c2.4,0,2.7,0,3.6,0.1c0.9,0,1.4,0.2,1.7,0.3c0.4,0.2,0.7,0.4,1,0.7
	c0.3,0.3,0.5,0.6,0.7,1c0.1,0.3,0.3,0.8,0.3,1.7c0,0.9,0.1,1.2,0.1,3.6s0,2.7-0.1,3.6c0,0.9-0.2,1.4-0.3,1.7c-0.2,0.4-0.4,0.7-0.7,1
	c-0.3,0.3-0.6,0.5-1,0.7c-0.3,0.1-0.8,0.3-1.7,0.3c-0.9,0-1.2,0.1-3.6,0.1s-2.7,0-3.6-0.1c-0.9,0-1.4-0.2-1.7-0.3
	c-0.4-0.2-0.7-0.4-1-0.7c-0.3-0.3-0.5-0.6-0.7-1c-0.1-0.3-0.3-0.8-0.3-1.7c0-0.9-0.1-1.2-0.1-3.6s0-2.7,0.1-3.6
	c0-0.9,0.2-1.4,0.3-1.7c0.2-0.4,0.4-0.7,0.7-1c0.3-0.3,0.6-0.5,1-0.7c0.3-0.1,0.8-0.3,1.7-0.3C-137.7-131.7-137.4-131.7-135-131.7
	 M-135-133.3c-2.4,0-2.8,0-3.7,0.1c-1,0-1.6,0.2-2.2,0.4c-0.6,0.2-1.1,0.5-1.6,1c-0.5,0.5-0.8,1-1,1.6c-0.2,0.6-0.4,1.2-0.4,2.2
	c0,1-0.1,1.3-0.1,3.7s0,2.8,0.1,3.7c0,1,0.2,1.6,0.4,2.2c0.2,0.6,0.5,1.1,1,1.6c0.5,0.5,1,0.8,1.6,1c0.6,0.2,1.2,0.4,2.2,0.4
	c1,0,1.3,0.1,3.7,0.1s2.8,0,3.7-0.1c1,0,1.6-0.2,2.2-0.4c0.6-0.2,1.1-0.5,1.6-1c0.5-0.5,0.8-1,1-1.6c0.2-0.6,0.4-1.2,0.4-2.2
	c0-1,0.1-1.3,0.1-3.7c0-2.4,0-2.8-0.1-3.7c0-1-0.2-1.6-0.4-2.2c-0.2-0.6-0.5-1.1-1-1.6c-0.5-0.5-1-0.8-1.6-1
	c-0.6-0.2-1.2-0.4-2.2-0.4C-132.2-133.3-132.6-133.3-135-133.3L-135-133.3z M-135-128.9c-2.6,0-4.6,2.1-4.6,4.6s2.1,4.6,4.6,4.6
	s4.6-2.1,4.6-4.6S-132.4-128.9-135-128.9z M-135-121.3c-1.7,0-3-1.3-3-3s1.3-3,3-3s3,1.3,3,3S-133.3-121.3-135-121.3z M-130.2-130.2
	c-0.6,0-1.1,0.5-1.1,1.1s0.5,1.1,1.1,1.1c0.6,0,1.1-0.5,1.1-1.1S-129.6-130.2-130.2-130.2z"/>
<path id="basketball_2_" class="st1" d="M-94.7-117.9c-0.1-0.5-0.5-2.7-1.5-5.5c2.5-0.4,4.6,0.3,4.8,0.3
	C-91.7-120.9-93-119.1-94.7-117.9z M-99-116.6c-1.8,0-3.4-0.6-4.7-1.6c0,0,0,0,0,0s1.5-3.2,6-4.8c0,0,0,0,0.1,0
	c1.1,2.8,1.5,5.2,1.6,5.8C-96.9-116.8-97.9-116.6-99-116.6z M-106.7-124.3c0-0.1,0-0.2,0-0.2c0.1,0,3.9,0.1,7.9-1.1
	c0.2,0.4,0.4,0.9,0.6,1.3c-0.1,0-0.2,0.1-0.3,0.1c-4.1,1.3-6.2,5.1-6.2,5.1s0,0,0,0C-105.9-120.5-106.7-122.3-106.7-124.3z
	 M-102.3-131.2c0.1,0.1,1.5,2.1,2.8,4.4c-3.7,1-6.9,0.9-7.1,0.9C-106-128.2-104.4-130.2-102.3-131.2z M-93.9-130c0,0-1.1,1.7-4,2.8
	c-1.3-2.4-2.8-4.3-2.9-4.5c0.6-0.1,1.2-0.2,1.8-0.2C-97-132-95.3-131.2-93.9-130z M-91.3-124.4c-0.1,0-2.7-0.6-5.3-0.3
	c-0.1-0.1-0.1-0.3-0.2-0.4c-0.2-0.4-0.3-0.7-0.5-1.1c3-1.2,4.3-3,4.3-3C-92-127.9-91.3-126.2-91.3-124.4z M-99-133.3c-5,0-9,4-9,9
	s4,9,9,9s9-4,9-9S-94-133.3-99-133.3z"/>
<path class="st0" d="M-199-169.4h-16c-0.5,0-1,0.4-1,1v16c0,0.5,0.4,1,1,1h8.6v-7h-2.3v-2.7h2.3v-2c0-2.3,1.4-3.6,3.5-3.6
	c1,0,1.8,0.1,2.1,0.1v2.4l-1.4,0c-1.1,0-1.3,0.5-1.3,1.3v1.7h2.7l-0.4,2.7h-2.3v7h4.6c0.5,0,1-0.4,1-1v-16
	C-198-169-198.4-169.4-199-169.4z"/>
<path class="st0" d="M-162.1-88.4c0-1.1-0.2-1.7-0.4-2c-0.2-0.5-0.4-0.9-0.8-1.3c-0.4-0.4-0.7-0.6-1.3-0.8c-0.4-0.2-1-0.3-2-0.4
	c-1.2-0.1-1.5-0.1-4.4-0.1c-2.9,0-3.3,0-4.4,0.1c-1.1,0-1.7,0.2-2,0.4c-0.5,0.2-0.9,0.4-1.3,0.8c-0.4,0.4-0.6,0.7-0.8,1.3
	c-0.2,0.4-0.3,1-0.4,2c-0.1,1.2-0.1,1.5-0.1,4.4s0,3.3,0.1,4.4c0,1.1,0.2,1.7,0.4,2c0.2,0.5,0.4,0.9,0.8,1.3
	c0.4,0.4,0.7,0.6,1.3,0.8c0.4,0.2,1,0.3,2,0.4c1.2,0.1,1.5,0.1,4.4,0.1s3.3,0,4.4-0.1c1.1,0,1.7-0.2,2-0.4c0.5-0.2,0.9-0.4,1.3-0.8
	c0.4-0.4,0.6-0.7,0.8-1.3c0.2-0.4,0.3-1,0.4-2c0.1-1.2,0.1-1.5,0.1-4.4S-162-87.3-162.1-88.4z M-174-78h-2v-7h2V-78z M-175-86.6
	L-175-86.6c-0.8,0-1.4-0.6-1.4-1.4c0-0.8,0.5-1.4,1.4-1.4c0.8,0,1.3,0.6,1.4,1.4C-173.6-87.2-174.2-86.6-175-86.6z M-166-78h-2v-3.2
	c0-1.1-0.6-1.8-1.5-1.8c-0.7,0-1.3,0.5-1.5,1c-0.1,0.2,0,0.4,0,0.6v3.4h-2c0,0,0-6.3,0-7h2v1.2c0.1-0.5,1-1.2,2.2-1.2
	c1.6,0,2.8,1.1,2.8,3.5V-78z"/>
</svg>
