<svg id="Twitter-icon" xmlns="http://www.w3.org/2000/svg" viewBox="0 0 22 19.004"><defs><style>.cls-1{fill:#bababa;fill-rule:evenodd;}</style></defs><title>twitter-icon</title><path id="tweetie" class="cls-1" d="M19.408,3A4.758,4.758,0,0,0,21.392.351a8.715,8.715,0,0,1-2.867,1.164A4.379,4.379,0,0,0,15.231,0a4.661,4.661,0,0,0-4.512,4.8,5.056,5.056,0,0,0,.115,1.093A12.579,12.579,0,0,1,1.531.877C0,3,1.717,6.422,2.929,7.284a4.327,4.327,0,0,1-2.045-.6V6.743a4.733,4.733,0,0,0,3.622,4.7,8.463,8.463,0,0,1-2.039.084,4.559,4.559,0,0,0,4.216,3.331A11.076,11.076,0,0,1,0,16.849,12.24,12.24,0,0,0,6.919,19c8.3,0,12.829-7.474,12.829-14.27A9.482,9.482,0,0,0,22,2.25,8.6,8.6,0,0,1,19.408,3Z"/></svg>