<?xml-stylesheet type="text/css" href="../css/site.css"?><svg id="twitter-svg" xmlns="http://www.w3.org/2000/svg" viewBox="0 0 15.17 13"><defs></defs><title>Twitter</title><path class="twit-svg-path" d="M717.92,548.48a3.26,3.26,0,0,0,1.37-1.82,6,6,0,0,1-2,.8,3,3,0,0,0-2.27-1,3.2,3.2,0,0,0-3.11,3.28,3.43,3.43,0,0,0,.08.75,8.69,8.69,0,0,1-6.41-3.43c-1.06,1.46.13,3.79,1,4.38a3,3,0,0,1-1.41-.41v0a3.24,3.24,0,0,0,2.5,3.22,5.88,5.88,0,0,1-1.41.06,3.14,3.14,0,0,0,2.91,2.28,7.68,7.68,0,0,1-4.61,1.36,8.49,8.49,0,0,0,4.77,1.47c5.73,0,8.85-5.11,8.85-9.76a6.51,6.51,0,0,0,1.55-1.7A6,6,0,0,1,717.92,548.48Z" transform="translate(-704.53 -546.43)"/></svg>
